# xmcd
#
# Track frame offsets: 
#        150
#        20741
#        39960
#        62606
#        83566
#        95261
#        116430
#        136735
#        162383
#        192232
#        210733
#        226524
#
# Disc length: 3229 seconds
#
# Revision: 0
# Processed by: cddbd v1.5.2PL0 Copyright (c) Steve Scherf et al.
# Submitted via: ExactAudioCopy v1.2
#
DISCID=8c0c9b0c
DTITLE=Blueville - The Lost Takes and Live Sessions
DYEAR=2018
DGENRE=Blues
TTITLE0=Real Good Time (Butterfly Blues Out-Take)
TTITLE1=You or Nobody (Butterfly Blues Out-Take) 
TTITLE2=Almost Cut My Hair (Live)
TTITLE3=Help the Poor (Live)
TTITLE4=Caldonia (Live)
TTITLE5=Poison Whiskey (Live)
TTITLE6=The Thrill Is Gone (Live)
TTITLE7=Down South Jukin' (Live)
TTITLE8=Fire and Rain (Live)
TTITLE9=Rugged Road (Live)
TTITLE10=Everybody Has the Blues (Live)
TTITLE11=Hillbilly Blues (Live)
EXTD=
EXTT0=
EXTT1=
EXTT2=
EXTT3=
EXTT4=
EXTT5=
EXTT6=
EXTT7=
EXTT8=
EXTT9=
EXTT10=
EXTT11=
PLAYORDER=
